HIERARCHY
ROOT Hips
{
	OFFSET 0.000000 0.000000 0.000000
	CHANNELS 6 Xposition Yposition Zposition Zrotation Yrotation Xrotation
	JOINT Chest
	{
		OFFSET 0.000000 10.224184 -1.136021
		CHANNELS 3 Zrotation Yrotation Xrotation
		JOINT Chest2
		{
			OFFSET 0.000000 11.333266 0.000000
			CHANNELS 3 Zrotation Yrotation Xrotation
			JOINT Chest3
			{
				OFFSET 0.000000 10.347983 -0.005192
				CHANNELS 3 Zrotation Yrotation Xrotation
				JOINT Chest4
				{
					OFFSET 0.000000 10.336430 -0.005197
					CHANNELS 3 Zrotation Yrotation Xrotation
					JOINT Neck
					{
						OFFSET 0.000000 14.463488 0.000000
						CHANNELS 3 Zrotation Yrotation Xrotation
						JOINT Head
						{
							OFFSET 0.000000 9.624711 0.011165
							CHANNELS 3 Zrotation Yrotation Xrotation
							End Site
							{
								OFFSET 0.000000 0.000000 0.000000
							}
						}
					}
					JOINT RightCollar
					{
						OFFSET -3.157643 8.110621 0.000000
						CHANNELS 3 Zrotation Yrotation Xrotation
						JOINT RightShoulder
						{
							OFFSET -14.841244 0.000000 0.000000
							CHANNELS 3 Zrotation Yrotation Xrotation
							JOINT RightElbow
							{
								OFFSET -31.724693 0.000000 0.000000
								CHANNELS 3 Zrotation Yrotation Xrotation
								JOINT RightWrist
								{
									OFFSET -25.942014 0.000000 0.000000
									CHANNELS 3 Zrotation Yrotation Xrotation
									End Site
									{
										OFFSET 0.000000 0.000000 0.000000
									}
								}
							}
						}
					}
					JOINT LeftCollar
					{
						OFFSET 3.157643 8.110621 0.000000
						CHANNELS 3 Zrotation Yrotation Xrotation
						JOINT LeftShoulder
						{
							OFFSET 14.841244 0.000000 0.000000
							CHANNELS 3 Zrotation Yrotation Xrotation
							JOINT LeftElbow
							{
								OFFSET 31.724693 0.000000 0.000000
								CHANNELS 3 Zrotation Yrotation Xrotation
								JOINT LeftWrist
								{
									OFFSET 25.942014 0.000000 0.000000
									CHANNELS 3 Zrotation Yrotation Xrotation
									End Site
									{
										OFFSET 0.000000 0.000000 0.000000
									}
								}
							}
						}
					}
				}
			}
		}
	}
	JOINT RightHip
	{
		OFFSET -8.427108 0.013854 -0.001539
		CHANNELS 3 Zrotation Yrotation Xrotation
		JOINT RightKnee
		{
			OFFSET 0.000000 -43.437391 -0.001227
			CHANNELS 3 Zrotation Yrotation Xrotation
			JOINT RightAnkle
			{
				OFFSET 0.000000 -42.439704 -0.002068
				CHANNELS 3 Zrotation Yrotation Xrotation
				JOINT RightToe
				{
					OFFSET 0.000000 -8.481460 19.371378
					CHANNELS 3 Zrotation Yrotation Xrotation
					End Site
					{
						OFFSET 0.000000 0.000000 0.000000
					}
				}
			}
		}
	}
	JOINT LeftHip
	{
		OFFSET 8.427108 0.011561 -0.001285
		CHANNELS 3 Zrotation Yrotation Xrotation
		JOINT LeftKnee
		{
			OFFSET 0.000000 -43.437391 -0.001227
			CHANNELS 3 Zrotation Yrotation Xrotation
			JOINT LeftAnkle
			{
				OFFSET 0.000000 -42.439704 -0.002068
				CHANNELS 3 Zrotation Yrotation Xrotation
				JOINT LeftToe
				{
					OFFSET 0.000000 -8.481460 19.371378
					CHANNELS 3 Zrotation Yrotation Xrotation
					End Site
					{
						OFFSET 0.000000 0.000000 0.000000
					}
				}
			}
		}
	}
}
MOTION
Frames: 16
Frame Time: 0.004167
-255.420627 92.554676 -472.272570 178.234948 15.165784 -175.134864 -0.450620 -0.404393 -0.324912 -0.200556 -0.179415 -5.971138 -0.217733 -0.158131 -0.150718 -0.163350 -0.118530 5.723591 -1.039709 -1.261792 9.491637 -1.309157 -2.738842 -18.392863 7.932185 2.658504 1.466317 69.237440 -23.064334 -21.594994 81.066500 45.378028 52.601008 -3.439698 22.959422 -6.528121 -5.945967 -2.266337 2.186244 -64.238181 2.159593 -15.635665 -82.049526 -51.254479 72.552700 10.285633 -17.811665 -3.670834 2.497016 -5.414588 -29.272608 -1.769602 -1.334449 31.656516 -0.165158 5.398159 -17.829324 0.000000 -0.000000 0.000000 3.911657 11.945050 -12.920000 6.066902 -2.441924 83.613984 -3.992738 3.358891 -7.933340 0.000000 -0.000000 0.000000 
-255.280258 92.183615 -473.043240 178.311448 15.236864 -175.219159 -0.410700 -0.328970 -0.206389 -0.182678 -0.146027 -5.918361 -0.196557 -0.126730 -0.097942 -0.147447 -0.095004 5.763189 -1.062648 -1.254292 9.377026 -1.351475 -2.736725 -18.605146 8.012481 2.743567 1.484189 69.037151 -22.221516 -21.080002 80.723351 45.816151 52.381619 -3.664887 23.065154 -6.644922 -5.975346 -2.225349 2.007439 -64.315891 2.724531 -15.728597 -81.428085 -51.081145 71.995911 10.300826 -17.785629 -3.786302 2.674991 -5.267986 -29.606562 -1.539873 -0.478811 33.275517 -0.438779 4.457225 -18.173906 0.000000 0.000000 0.000000 3.943340 12.341258 -13.588683 5.993376 -3.031860 85.236615 -3.697751 3.688876 -8.354806 0.000000 0.000000 0.000000 
-255.144330 91.802352 -473.804336 178.392302 15.311763 -175.307397 -0.367481 -0.255370 -0.079162 -0.163367 -0.113435 -5.861726 -0.174038 -0.096266 -0.041309 -0.130542 -0.072177 5.805677 -1.087461 -1.241486 9.254087 -1.399389 -2.726040 -18.832800 8.098678 2.831773 1.504587 68.819960 -21.327233 -20.516683 80.329303 46.286576 52.127426 -3.917335 23.180982 -6.775902 -6.009121 -2.179874 1.812245 -64.401901 3.309610 -15.841718 -80.750916 -50.885531 71.396230 10.317353 -17.755394 -3.911040 2.868813 -5.114315 -29.998802 -1.211204 0.512708 35.055599 -0.694274 3.360792 -18.641240 0.000000 -0.000000 0.000000 3.962431 12.754508 -14.279456 5.902150 -3.631269 86.848382 -3.387083 4.019305 -8.768311 0.000000 0.000000 0.000000 
-255.011855 91.417121 -474.559117 178.475945 15.388347 -175.397703 -0.322267 -0.183265 0.053886 -0.143207 -0.081488 -5.802521 -0.150739 -0.066531 0.017898 -0.113058 -0.049893 5.850093 -1.112750 -1.225111 9.125426 -1.449676 -2.709276 -19.071037 8.189612 2.921479 1.526703 68.593542 -20.394118 -19.925072 79.894722 46.773183 51.844496 -4.188274 23.302543 -6.915882 -6.046229 -2.131549 1.608195 -64.494406 3.909866 -15.967830 -80.029734 -50.674198 70.766193 10.334615 -17.722509 -4.042835 3.072341 -4.960581 -30.423444 -0.792631 1.587425 36.946252 -0.920154 2.157536 -19.205977 0.000000 -0.000000 0.000000 3.969607 13.177787 -14.988571 5.791854 -4.232193 88.435749 -3.067967 4.346158 -9.174131 0.000000 -0.000000 -0.000000 
-254.881848 91.034153 -475.310840 178.560819 15.464478 -175.488206 -0.276349 -0.112325 0.189860 -0.122774 -0.050035 -5.742028 -0.127220 -0.037313 0.078392 -0.095415 -0.027993 5.895471 -1.137101 -1.206892 8.993647 -1.499080 -2.688883 -19.315071 8.284136 3.011030 1.549711 68.364858 -19.434944 -19.324662 79.431330 47.260227 51.539956 -4.468764 23.425681 -7.059722 -6.085557 -2.082004 1.402817 -64.591480 4.520349 -16.099677 -79.275881 -50.453932 70.117617 10.352116 -17.688560 -4.179507 3.279541 -4.813926 -30.854701 -0.299293 2.695132 38.895905 -1.108032 0.897172 -19.844902 0.000000 -0.000000 0.000000 3.965653 13.604145 -15.712210 5.661569 -4.826705 89.985145 -2.747382 4.664953 -9.572685 0.000000 0.000000 0.000000 
-254.753322 90.659681 -476.062762 178.645379 15.538001 -175.577045 -0.231016 -0.042211 0.325862 -0.102643 -0.018922 -5.681538 -0.104035 -0.008404 0.138884 -0.078026 -0.006320 5.940846 -1.159084 -1.188538 8.861351 -1.544314 -2.667258 -19.560117 8.381120 3.098758 1.572758 68.140130 -18.462622 -18.734426 78.952434 47.732417 51.222219 -4.749668 23.546466 -7.202309 -6.125946 -2.032850 1.203641 -64.691057 5.136137 -16.229930 -78.500251 -50.231754 69.461499 10.369465 -17.655175 -4.318923 3.484490 -4.681645 -31.266888 0.246750 3.789144 40.851119 -1.252843 -0.369654 -20.536670 0.000000 0.000000 0.000000 3.951473 14.026702 -16.446467 5.510826 -5.406960 91.482917 -2.432081 4.970781 -9.964550 0.000000 0.000000 0.000000 
-254.625292 90.299939 -476.818140 178.728083 15.606755 -175.662366 -0.187544 0.027418 0.458982 -0.083379 0.012002 -5.622341 -0.081732 0.020405 0.198083 -0.061305 0.015282 5.985249 -1.177251 -1.171748 8.731140 -1.582053 -2.646757 -19.801397 8.479456 3.182982 1.594966 67.924847 -17.490188 -18.172847 78.473035 48.174991 50.901103 -5.021669 23.661209 -7.338578 -6.166187 -1.985684 1.018194 -64.790928 5.752340 -16.351180 -77.713269 -50.014914 68.807965 10.386383 -17.624019 -4.458994 3.681349 -4.571182 -31.634413 0.816373 4.827057 42.755955 -1.352876 -1.591549 -21.261361 0.000000 -0.000000 0.000000 3.928086 14.438655 -17.187332 5.339582 -5.965227 92.915297 -2.128616 5.258350 -10.350459 0.000000 -0.000000 -0.000000 
-254.496771 89.961158 -477.580232 178.807401 15.668570 -175.742322 -0.147200 0.096910 0.586307 -0.065545 0.042887 -5.565734 -0.060853 0.049320 0.254696 -0.045658 0.036968 6.027710 -1.190140 -1.158209 8.605610 -1.608937 -2.629687 -20.034137 8.578053 3.262006 1.615432 67.723805 -16.530784 -17.657995 78.009834 48.573748 50.587840 -5.275277 23.766454 -7.463515 -6.205019 -1.942077 0.854000 -64.888717 6.364099 -16.455930 -76.924878 -49.810879 68.166262 10.402720 -17.596804 -4.597684 3.864327 -4.490108 -31.931760 1.373887 5.771109 44.551676 -1.409650 -2.716567 -21.999927 0.000000 0.000000 0.000000 3.896655 14.833290 -17.930683 5.148196 -6.493939 94.268365 -1.843374 5.522038 -10.731298 0.000000 0.000000 0.000000 
-254.366774 89.649572 -478.352294 178.881811 15.721266 -175.815074 -0.111250 0.166615 0.704917 -0.049697 0.073883 -5.513008 -0.041941 0.078548 0.307426 -0.031492 0.058893 6.067259 -1.196267 -1.149596 8.487353 -1.621569 -2.618323 -20.253574 8.675836 3.334119 1.633228 67.541176 -15.597616 -17.207601 77.581099 48.915050 50.294948 -5.500858 23.858937 -7.572190 -6.241130 -1.903583 0.718584 -64.981879 6.966589 -16.536589 -76.144564 -49.627297 67.544779 10.418444 -17.575281 -4.733009 4.027617 -4.446077 -32.133464 1.878192 6.587927 46.176811 -1.427641 -3.692442 -22.733611 0.000000 0.000000 0.000000 3.858476 15.203981 -18.672278 4.937380 -6.985710 95.528026 -1.582630 5.755958 -11.108086 0.000000 0.000000 0.000000 
-254.234314 89.371414 -479.137585 178.949790 15.762656 -175.878784 -0.080954 0.236886 0.811889 -0.036394 0.105142 -5.465463 -0.025533 0.108294 0.354977 -0.019206 0.081207 6.102921 -1.194137 -1.147579 8.378954 -1.616522 -2.614909 -20.454963 8.771743 3.397599 1.647406 67.380589 -14.703941 -16.839140 77.206357 49.185781 50.035925 -5.688671 23.935553 -7.659787 -6.273157 -1.871731 0.619466 -65.067690 7.555015 -16.585470 -75.381387 -49.471973 66.951109 10.433652 -17.561241 -4.863044 4.165305 -4.446771 -32.214071 2.284519 7.247583 47.567667 -1.413836 -4.466793 -23.443401 0.000000 -0.000000 0.000000 3.814993 15.544195 -19.407755 4.708157 -7.433376 96.679991 -1.352600 5.954021 -11.481958 -0.000000 0.000000 0.000000 
-254.098404 89.132915 -479.939361 179.009821 15.790551 -175.931621 -0.057578 0.308074 0.904298 -0.026190 0.136810 -5.424395 -0.012167 0.138761 0.396054 -0.009206 0.104064 6.133727 -1.182241 -1.153829 8.282983 -1.590338 -2.621687 -20.633580 8.864716 3.450704 1.657003 67.245242 -13.863032 -16.569922 76.905957 49.373249 49.824801 -5.828914 23.993276 -7.721643 -6.299682 -1.848026 0.564164 -65.143241 8.124601 -16.594796 -74.644044 -49.352835 66.392145 10.448563 -17.556509 -4.985912 4.271267 -4.499822 -32.148091 2.546770 7.721820 48.659237 -1.377111 -4.987324 -24.109564 0.000000 0.000000 0.000000 3.767800 15.847500 -20.132631 4.461796 -7.830016 97.709761 -1.159502 6.110010 -11.854122 -0.000000 0.000000 0.000000 
-253.957470 88.928084 -480.759057 179.064340 15.808134 -175.977747 -0.040385 0.379645 0.986850 -0.018755 0.168643 -5.387709 -0.001538 0.169676 0.432748 -0.001262 0.127255 6.161246 -1.159506 -1.166736 8.194250 -1.541711 -2.635309 -20.799110 8.961516 3.492710 1.665200 67.120751 -13.048518 -16.405789 76.667863 49.462328 49.656281 -5.923577 24.034219 -7.760771 -6.320750 -1.833168 0.556469 -65.215401 8.681255 -16.555080 -73.888493 -49.280944 65.833886 10.466657 -17.563303 -5.109696 4.360085 -4.634026 -31.941070 2.651726 8.044544 49.486018 -1.321069 -5.240400 -24.794762 0.000000 0.000000 0.000000 3.718452 16.122471 -20.852581 4.180725 -8.184716 98.639149 -0.991939 6.216927 -12.225865 0.000000 0.000000 0.000000 
-253.811582 88.746307 -481.594032 179.116574 15.819797 -176.021827 -0.027515 0.450891 1.065714 -0.013263 0.200329 -5.352666 0.007144 0.200638 0.467803 0.005219 0.150482 6.187535 -1.126865 -1.183405 8.106600 -1.473522 -2.651044 -20.962954 9.067662 3.525052 1.674978 66.991972 -12.229474 -16.330585 76.467392 49.458524 49.515070 -5.984221 24.063555 -7.784566 -6.337671 -1.825878 0.590584 -65.290925 9.234110 -16.468556 -73.075525 -49.254752 65.243154 10.489764 -17.581072 -5.241797 4.446855 -4.859643 -31.624481 2.627878 8.277231 50.135197 -1.247536 -5.272522 -25.561937 0.000000 -0.000000 0.000000 3.666467 16.381639 -21.575928 3.854223 -8.509572 99.498096 -0.833957 6.275610 -12.597080 0.000000 0.000000 0.000000 
-253.662228 88.586887 -482.441432 179.166191 15.825164 -176.062789 -0.018560 0.521901 1.140155 -0.009529 0.231905 -5.319588 0.014065 0.231669 0.500893 0.010377 0.173759 6.212349 -1.085800 -1.203589 8.021152 -1.388572 -2.669077 -21.122985 9.180221 3.549209 1.685067 66.860991 -11.412282 -16.328599 76.305265 49.380317 49.399603 -6.015421 24.082804 -7.795053 -6.350925 -1.824689 0.659630 -65.366674 9.783204 -16.344949 -72.220971 -49.263393 64.628105 10.515815 -17.607523 -5.379318 4.525921 -5.156328 -31.211608 2.494559 8.430876 50.621336 -1.162457 -5.121849 -26.390669 0.000000 -0.000000 0.000000 3.610481 16.624561 -22.302089 3.494022 -8.802966 100.283869 -0.685296 6.291556 -12.966934 -0.000000 0.000000 0.000000 
-253.510896 88.449127 -483.298401 179.212858 15.823853 -176.099560 -0.013115 0.592758 1.209444 -0.007371 0.263407 -5.288799 0.019410 0.262788 0.531695 0.014350 0.197101 6.235448 -1.037795 -1.227052 7.939028 -1.289658 -2.689626 -21.277068 9.296250 3.566648 1.694210 66.730295 -10.603258 -16.384178 76.181124 49.246164 49.307626 -6.021794 24.093417 -7.794227 -6.361035 -1.828140 0.756738 -65.439647 10.328540 -16.193982 -71.340991 -49.296132 63.997810 10.542897 -17.640393 -5.519307 4.591744 -5.503627 -30.715649 2.273340 8.514616 50.959987 -1.070285 -4.826714 -27.260348 0.000000 -0.000000 0.000000 3.549137 16.850781 -23.030478 3.111897 -9.064025 100.993410 -0.546092 6.270280 -13.334614 -0.000000 0.000000 0.000000 
-253.359074 88.332328 -484.162084 179.256242 15.815483 -176.131067 -0.010781 0.663543 1.272854 -0.006607 0.294870 -5.260620 0.023364 0.294009 0.559889 0.017277 0.220521 6.256589 -0.984334 -1.253566 7.861354 -1.179570 -2.712934 -21.423062 9.412789 3.578827 1.701163 66.602792 -9.808649 -16.481708 76.093714 49.074502 49.236400 -6.007987 24.096785 -7.784024 -6.368565 -1.834782 0.875034 -65.507014 10.870062 -16.025396 -70.452231 -49.342428 63.362517 10.569263 -17.677442 -5.658751 4.639132 -5.880952 -30.149715 1.987302 8.536533 51.167584 -0.974092 -4.425666 -28.150435 0.000000 0.000000 0.000000 3.481076 17.059825 -23.760512 2.719624 -9.292563 101.623388 -0.416830 6.217305 -13.699324 -0.000000 0.000000 -0.000000 
